<svg height="512" viewBox="0 0 60 60" width="512" xmlns="http://www.w3.org/2000/svg"><g id="Page-1" fill="none" fill-rule="evenodd"><g id="038---House-Planning" fill="rgb(0,0,0)" fill-rule="nonzero"><path id="Shape" d="m15 54h-3v-2c0-.5522847-.4477153-1-1-1s-1 .4477153-1 1v3c0 .5522847.4477153 1 1 1h4c.5522847 0 1-.4477153 1-1s-.4477153-1-1-1z"/><path id="Shape" d="m50 19.172v-11.172c0-1.1045695-.8954305-2-2-2h-5c-1.1045695 0-2 .8954305-2 2v2.172l-9.586-9.586c-.7809997-.78076388-2.0470003-.78076388-2.828 0l-27.706 27.706c-.37524801.375096-.58607293.8839266-.58607293 1.4145s.21082492 1.039404.58607293 1.4145l2.827 2.828c.60281645.6079542 1.52857189.7585459 2.293.373v22.678c0 1.6568542 1.34314575 3 3 3h42.04c1.6568542 0 3-1.3431458 3-3v-22.657c.7591434.3529419 1.6577806.1957203 2.252-.394l2.828-2.828c.375248-.375096.5860729-.8839266.5860729-1.4145s-.2108249-1.039404-.5860729-1.4145zm-7-11.172h5v9.172l-5-5zm-15.408 19h4.816l3.357 7.673-2.665 2.01-1.682-1.683c-.7941296-.7551757-2.0408704-.7551757-2.835 0l-1.673 1.68-2.675-2.008zm.875-2 1.533-3.5 1.533 3.5zm-4.467 12 1.7 1.277c.0942073.0717575.1946017.135006.3.189v4.534c0 .5522847.4477153 1 1 1s1-.4477153 1-1v-4.649c.1142168-.0734059.2204592-.1585338.317-.254l1.683-1.68 1.68 1.681c.0967521.0961124.2029569.1822153.317.257v19.645h-3.997v-10c0-.5522847-.4477153-1-1-1s-1 .4477153-1 1v10h-2zm10 21v-19.566c.1013125-.0427339.198685-.0942644.291-.154l1.709-1.28v21zm17.04 0h-13.04v-22.791c.0005511-.2754798-.0566809-.5480129-.168-.8l-6-13.715c-.3186603-.7275888-1.0376891-1.1976435-1.832-1.1976435s-1.5133397.4700547-1.832 1.1976435l-6 13.711c-.1111845.2520671-.1687362.5245009-.169.8v22.795h-12.999c-.55228475 0-1-.4477153-1-1v-24.515l22-22 22.04 22.04v24.475c0 .5522847-.4477153 1-1 1zm3.838-25.465-24.171-24.171c-.3904999-.39038194-1.0235001-.39038194-1.414 0l-24.171 24.172-2.828-2.829 27.706-27.707 27.706 27.707z"/></g></g></svg>