<?xml version="1.0" encoding="iso-8859-1"?>
<!-- Generator: Adobe Illustrator 19.0.0, SVG Export Plug-In . SVG Version: 6.00 Build 0)  -->
<svg version="1.1" id="Capa_1" xmlns="http://www.w3.org/2000/svg" xmlns:xlink="http://www.w3.org/1999/xlink" x="0px" y="0px"
	 viewBox="0 0 512 512" style="enable-background:new 0 0 512 512;" xml:space="preserve">
<g>
	<g>
		<path d="M0,116.162v280.693h434.165V116.162H0z M403.316,131.308L217.083,266.832L30.849,131.308H403.316z M15.145,138.612
			l134.514,97.887L15.145,371.002V138.612z M25.856,381.71l136.201-136.19l55.026,40.043l55.026-40.043l136.201,136.19H25.856z
			 M419.02,371.002L284.505,236.499l134.514-97.887V371.002z"/>
	</g>
</g>
<g>
	<g>
		<path d="M370.6,81.611l74.132,21.965l21.965,74.132L512,36.308L370.6,81.611z M456.918,91.391l-34.914-10.345l66.596-21.337
			l-21.337,66.596L456.918,91.391z"/>
	</g>
</g>
<g>
	<g>
		<rect x="58.057" y="70.722" width="15.145" height="15.145"/>
	</g>
</g>
<g>
	<g>
		<rect x="118.638" y="70.722" width="100.969" height="15.145"/>
	</g>
</g>
<g>
	<g>
		<rect x="88.348" y="70.722" width="15.145" height="15.145"/>
	</g>
</g>
<g>
	<g>
		<rect x="140.851" y="35.383" width="15.145" height="15.145"/>
	</g>
</g>
<g>
	<g>
		<rect x="171.142" y="35.383" width="15.145" height="15.145"/>
	</g>
</g>
<g>
	<g>
		<rect x="201.432" y="35.383" width="173.666" height="15.145"/>
	</g>
</g>
<g>
	<g>
		<rect x="58.057" y="426.132" width="15.145" height="15.145"/>
	</g>
</g>
<g>
	<g>
		<rect x="118.638" y="426.132" width="100.969" height="15.145"/>
	</g>
</g>
<g>
	<g>
		<rect x="88.348" y="426.132" width="15.145" height="15.145"/>
	</g>
</g>
<g>
	<g>
		<rect x="201.432" y="461.471" width="173.666" height="15.145"/>
	</g>
</g>
<g>
	<g>
		<rect x="171.142" y="461.471" width="15.145" height="15.145"/>
	</g>
</g>
<g>
	<g>
		<rect x="140.851" y="461.471" width="15.145" height="15.145"/>
	</g>
</g>
<g>
	<g>
		<rect x="179.219" y="338.289" width="15.145" height="15.145"/>
	</g>
</g>
<g>
	<g>
		<rect x="239.801" y="338.289" width="15.145" height="15.145"/>
	</g>
</g>
<g>
	<g>
		<rect x="209.51" y="338.289" width="15.145" height="15.145"/>
	</g>
</g>
<g>
	<g>
		<g>
			<rect x="142.871" y="149.482" width="70.678" height="15.145"/>
			<rect x="111.57" y="149.482" width="16.155" height="15.145"/>
		</g>
	</g>
</g>
<g>
</g>
<g>
</g>
<g>
</g>
<g>
</g>
<g>
</g>
<g>
</g>
<g>
</g>
<g>
</g>
<g>
</g>
<g>
</g>
<g>
</g>
<g>
</g>
<g>
</g>
<g>
</g>
<g>
</g>
</svg>
